<svg xmlns="http://www.w3.org/2000/svg" width="33.682" height="34.937" viewBox="0 0 33.682 34.937">
  <g id="Messages" transform="translate(-45.9 -45.9)" fill="none" stroke-linecap="round" stroke="white">
    <path d="M62.748,76.461a15.187,15.187,0,0,0,5.765-1.127.865.865,0,0,1,.121-.05c.007,0,.014,0,.014-.007a2.284,2.284,0,0,1,.794-.142,2.155,2.155,0,0,1,.858.17L76.255,77.5l-1.567-6.268a2.128,2.128,0,0,1,.277-1.035h0a2.419,2.419,0,0,1,.177-.262,13.785,13.785,0,0,0,2.34-7.686A14.75,14.75,0,1,0,62.748,76.461Z" stroke="none"/>
    <path d="M 76.25540161132813 77.49620056152344 L 74.68836975097656 71.228271484375 C 74.68836975097656 70.85247802734375 74.79476165771484 70.49794006347656 74.96492004394531 70.19306945800781 C 75.02163696289063 70.10089111328125 75.078369140625 70.00871276855469 75.14218139648438 69.93073272705078 C 76.62406921386719 67.71141052246094 77.48202514648438 65.07376098632813 77.48202514648438 62.24467086791992 C 77.4962158203125 54.37429046630859 70.89500427246094 48 62.74809646606445 48 C 54.6011962890625 48 47.99999618530273 54.37429046630859 47.99999618530273 62.23049926757813 C 47.99999618530273 70.09380340576172 54.6011962890625 76.46099853515625 62.74809646606445 76.46099853515625 C 64.7972412109375 76.46099853515625 66.74711608886719 76.05683898925781 68.51261901855469 75.33363342285156 C 68.55517578125 75.31236267089844 68.59061431884766 75.29817199707031 68.63317108154297 75.28399658203125 C 68.6402587890625 75.28399658203125 68.6473388671875 75.28399658203125 68.6473388671875 75.27690124511719 C 68.89553070068359 75.18472290039063 69.1649169921875 75.13509368896484 69.44147491455078 75.13509368896484 C 69.74636840820313 75.13509368896484 70.03707122802734 75.19180297851563 70.29943084716797 75.30526733398438 L 76.25540161132813 77.49620056152344 M 79.25534057617188 80.83731842041016 L 75.5303955078125 79.46707916259766 L 69.57442474365234 77.27615356445313 L 69.51951599121094 77.25595092773438 L 69.47636413574219 77.23728179931641 C 69.47077178955078 77.23641967773438 69.45930480957031 77.23509216308594 69.44147491455078 77.23509216308594 C 69.42802429199219 77.23509216308594 69.41619873046875 77.23636627197266 69.40628814697266 77.23812866210938 C 69.39234924316406 77.24360656738281 69.37836456298828 77.24893188476563 69.36428070068359 77.25411987304688 L 69.30864715576172 77.27690887451172 C 67.22859954833984 78.12896728515625 65.02130889892578 78.56099700927734 62.74809646606445 78.56099700927734 C 58.26085662841797 78.56099700927734 54.03922653198242 76.87223052978516 50.86087799072266 73.80577850341797 C 49.30832672119141 72.30787658691406 48.08850860595703 70.56118774414063 47.23530960083008 68.61422729492188 C 46.34925842285156 66.59230041503906 45.89999771118164 64.44451141357422 45.89999771118164 62.23049926757813 C 45.89999771118164 60.01808166503906 46.34927749633789 57.87125015258789 47.23536682128906 55.84962844848633 C 48.08859634399414 53.90298080444336 49.30829620361328 52.15631103515625 50.86061859130859 50.65813064575195 C 54.03981781005859 47.58980178833008 58.26153945922852 45.90000152587891 62.74809646606445 45.90000152587891 C 65.0665283203125 45.90000152587891 67.31291961669922 46.34862899780273 69.42486572265625 47.23342895507813 C 71.46920776367188 48.08990859985352 73.29386901855469 49.31369018554688 74.84814453125 50.87078094482422 C 77.90853881835938 53.93669128417969 79.58972930908203 57.97735977172852 79.58203125 62.24845886230469 C 79.58203125 65.39695739746094 78.65066528320313 68.45800018310547 76.88862609863281 71.09687805175781 L 76.83881378173828 71.17149353027344 L 78.29270172119141 76.98686218261719 L 79.25534057617188 80.83731842041016 Z" stroke="none" fill="white"/>
  </g>
</svg>
