<svg xmlns="http://www.w3.org/2000/svg" width="59.297" height="57.966" viewBox="0 0 59.297 57.966">
  <g id="Home" transform="translate(0.227 0.186)">
    <g id="Home-2" data-name="Home">
      <path id="Home-3" data-name="Home" d="M131.656,101.631,104.25,77.61a2.015,2.015,0,0,0-2.657,0L74.186,101.631a2.015,2.015,0,0,0,2.657,3.031l2.122-1.86v29.972a2.015,2.015,0,0,0,2.015,2.015h43.882a2.015,2.015,0,0,0,2.015-2.015V102.8l2.122,1.86a2.015,2.015,0,0,0,2.657-3.031ZM98.268,130.759v-16.6h9.307v16.6H98.268Zm24.579-31.474v31.474H111.605V112.143a2.015,2.015,0,0,0-2.015-2.015H96.253a2.015,2.015,0,0,0-2.015,2.015v18.616H83V99.285c0-.005,0-.01,0-.015l19.926-17.465L122.848,99.27C122.848,99.275,122.847,99.28,122.847,99.285Z" transform="translate(-73.5 -77.11)" fill="#515c6f" stroke="#515c6f" stroke-width="0.2"/>
    </g>
  </g>
</svg>
