<svg width="4em" height="4em" viewBox="0 0 46 46" class="bi bi-house-door" fill="#3B6B71" xmlns="http://www.w3.org/2000/svg">
<style type="text/css">
	.st0{fill-rule:evenodd;clip-rule:evenodd;fill:#3B6B71;}
	.st1{fill:#1D1D1B;}
</style>
<path class="st0" d="M22.9,3.4c0.6-0.6,1.5-0.6,2.1,0c0,0,0,0,0,0l18,18c0.3,0.3,0.4,0.7,0.4,1.1l1.1,21c0,0.8-0.7,1.5-1.5,1.5H27.7
	c-0.8,0-1.5-0.7-1.5-1.5l1.2-12.9H21l0.9,12.9c0,0.8-0.7,1.5-1.5,1.5H5.2c-0.8,0-1.5-0.7-1.5-1.5l0.8-21c0-0.4,0.2-0.8,0.4-1.1
	C4.9,21.4,22.9,3.4,22.9,3.4z M5.9,22.1L6.7,42h11L19,30.5c0-0.9,0.3-1.9,1.1-1.9l8.1,0c0.9,0,1.1,2,1.1,2.9L30.3,42h11l0.8-19.8
	L24,9.1L5.9,22.1z"/>
<path class="st0" d="M39.8,7.5L39,18l-6-6l-0.8-4.5c0-0.8,0.7-1.5,1.5-1.5h4.5C39.1,6,39.8,6.7,39.8,7.5z"/>
<path class="st1" d="M14.4,25.8c0,0,0.1-0.2,0.3-0.2c0.2,0,0.2,0.3,0.2,0.3c0,0,0.7,0.1,0.8,0.2c0.9,0.7,0.6,2,0.6,2.1
	c0,0.1-0.6-0.6-1.1-0.9c-0.4-0.3-1-0.5-1-0.4c-0.3,0.5-0.9,0.8-1.6,0.8c-0.6,0-1.2-0.3-1.5-0.8c-0.1-0.1-0.6,0-1.1,0.4
	c-0.6,0.4-1.1,1.1-1.1,1c0-0.1-0.2-1.6,0.6-2.1c0.4-0.2,0.6-0.2,0.9-0.2c0,0,0-0.2,0.2-0.3c0.2,0,0.2,0.2,0.2,0.2
	c0-1,0.8-1.8,1.8-1.8S14.4,24.8,14.4,25.8z"/>
<path class="st1" d="M11.3,28.5C11.1,28.7,8,33.1,8,33.1s-0.4,0.8,0,1.2c0.4,0.4,1.1,0,1.2-0.2c0-0.1,1.1-1.6,1.1-1.6l-1,3.9
	c0,0-0.1,0.7,0.1,1c0.3,0.2,0.9,0.2,0.9,0.2l0,2.9c0,0,0.1,0.7,0.8,0.7c0.9,0,0.9-0.6,0.9-0.6v-3h0.8l0.1,3.1c0,0,0,0.6,0.8,0.6
	c1,0,0.9-0.6,0.9-0.6v-3c0,0,0.6,0,1-0.1c0.3-0.3,0-1.1,0-1.1l-0.8-3.6l1.2,1.7c0,0,0.6,0.4,1,0.1c0.4-0.2,0.3-1,0.3-1
	s-3.4-4.9-3.6-5c-0.1-0.2-0.7-0.2-1.2-0.2C12.2,28.2,11.5,28.2,11.3,28.5z"/>
<path class="st1" d="M37.1,25.8c0,1-0.8,1.8-1.8,1.8c-1,0-1.8-0.8-1.8-1.8c0-0.6,0.3-1,0.7-1.4c0.1-0.1,0.2-0.5,0.5-0.7
	c0.3-0.4,0.9-0.6,1.2-0.6c0.2,0-0.4,0.6-0.3,0.6c0.4,0.1,2-0.3,0.8,0.4c-0.2,0.1-0.2,0.1-0.2,0.1C36.8,24.6,37.1,25.1,37.1,25.8z"/>
<path class="st1" d="M37.6,32.6c0,0,1.1,1.5,1.2,1.7s0.6,0.3,1,0.1c0.4-0.3,0.5-0.8,0.3-1c-0.1-0.2-3.3-4.9-3.4-5
	c-0.1-0.2-0.9-0.2-1.4-0.2c-0.5,0-1.3-0.1-1.5,0.2c-0.2,0.3-3.2,4.6-3.3,4.7c-0.1,0.2-0.4,0.7,0.1,1.1c0.4,0.3,1,0,1.2-0.2
	c0.1-0.2,1.1-1.6,1.1-1.6v5.1l0,2.9c0,0,0.1,0.7,0.9,0.7c0.8,0,1-0.7,1-0.7l0-4.8h0.8l0,4.7c0,0,0.1,0.7,0.9,0.7c0.9,0,1-0.8,1-0.8
	l0-2.9L37.6,32.6z"/>
</svg>