<svg width="2.5em" height="2.5em" viewBox="0 0 32 32" class="bi bi-bell" fill="#707070" xmlns="http://www.w3.org/2000/svg">
  <path d="M15,30c2.1,0,3.8-1.7,3.8-3.8h-7.5C11.2,28.3,12.9,30,15,30z"/>
  <path fill-rule="nonzero" d="M15,2.7L13.5,3c-3.5,0.7-6,4-6,7.7c0,1.2-0.3,4.3-0.9,7.3c-0.3,1.5-0.7,3.1-1.2,4.4h19.2
	c-0.5-1.4-0.9-2.9-1.2-4.4c-0.6-3-0.9-6.1-0.9-7.3c0-3.7-2.5-6.9-6-7.7L15,2.7L15,2.7z M26.7,22.5c0.4,0.8,0.9,1.5,1.5,1.9H1.9
	c0.6-0.4,1-1,1.5-1.9c1.7-3.4,2.3-9.6,2.3-11.2c0-4.5,3.2-8.3,7.5-9.2C13,1,13.8,0.1,14.8,0s1.9,0.6,2.1,1.7c0,0.1,0,0.3,0,0.4
	c4.4,0.9,7.5,4.7,7.5,9.2C24.4,12.9,25,19.1,26.7,22.5z"/>

</svg>